<?xml version="1.0" encoding="UTF-8"?>
<svg width="41px" height="54px" viewBox="0 0 41 54" version="1.1" xmlns="http://www.w3.org/2000/svg" xmlns:xlink="http://www.w3.org/1999/xlink">
    <!-- Generator: Sketch 51.3 (57544) - http://www.bohemiancoding.com/sketch -->
    <title>location-pin copy</title>
    <desc>Created with Sketch.</desc>
    <defs></defs>
    <g id="Page-1" stroke="none" stroke-width="1" fill="none" fill-rule="evenodd">
        <g id="Contacts" transform="translate(-778.000000, -498.000000)" fill="#4A90E2" fill-rule="nonzero">
            <g id="Group" transform="translate(542.000000, 335.000000)">
                <g id="location-pin-copy" transform="translate(236.000000, 163.000000)">
                    <path d="M20.5,6.92957746 C12.7091815,6.92957746 6.35211268,13.2162992 6.35211268,21.0774648 C6.35211268,28.9148867 12.6846099,35.2253521 20.5,35.2253521 C28.2908185,35.2253521 34.6478873,28.9386303 34.6478873,21.0774648 C34.6478873,13.2400429 28.3157996,6.92957746 20.5,6.92957746 Z M20.5,32.0604992 C20.2755799,32.0604992 19.4520235,31.5712999 18.6366576,29.3971267 C18.4015899,28.7703785 18.197646,28.0809965 18.0248262,27.3445367 L22.9751738,27.3445367 C22.802354,28.0809965 22.5984101,28.7703785 22.3633424,29.3971267 C21.5479765,31.5712999 20.7244201,32.0604992 20.5,32.0604992 Z M17.5108713,24.2214397 C17.4088994,23.2119291 17.354842,22.1577968 17.354842,21.0774648 C17.354842,19.9971327 17.4088994,18.9430005 17.5108713,17.9334898 L23.4891287,17.9334898 C23.5911006,18.9430005 23.645158,19.9971327 23.645158,21.0774648 C23.645158,22.1577968 23.5911006,23.2119291 23.4891287,24.2214397 L17.5108713,24.2214397 Z M9.95184438,17.9126118 L14.3521989,17.9126118 C14.258827,18.9319475 14.2096839,20.006139 14.2096839,21.0774648 C14.2096839,22.1487906 14.258827,23.2016947 14.3521989,24.2214397 L9.95184438,24.2214397 C9.34451761,22.1729436 9.34451761,19.9606987 9.95184438,17.9126118 Z M20.5,10.0735524 C20.7244201,10.0735524 21.5479765,10.5627517 22.3633424,12.7369249 C22.5984101,13.3632637 22.802354,14.0530551 22.9751738,14.7895149 L18.0248262,14.7895149 C18.197646,14.0530551 18.4015899,13.3632637 18.6366576,12.7369249 C19.4520235,10.5627517 20.2755799,10.0735524 20.5,10.0735524 Z M26.6478011,17.9334898 L31.0481556,17.9334898 C31.6554824,19.981986 31.6554824,22.1733529 31.0481556,24.2214397 L26.6478011,24.2214397 C26.741173,23.2016947 26.7903161,22.1487906 26.7903161,21.0774648 C26.7903161,20.006139 26.741173,18.9532349 26.6478011,17.9334898 Z M29.5361864,14.7895149 L26.193637,14.7895149 C25.9376834,13.5290593 25.5826245,12.2567319 25.082184,11.0666882 C26.258342,11.6054215 27.3419473,12.3545718 28.2842661,13.2957174 C28.7527636,13.7640387 29.1700704,14.2642909 29.5361864,14.7895149 Z M15.917816,11.0666882 C15.4161469,12.2587787 15.0619071,13.5315155 14.806363,14.7895149 L11.4638136,14.7895149 C11.8299296,14.2642909 12.2468269,13.764448 12.7153244,13.2961268 C13.6580527,12.3545718 14.7412484,11.6054215 15.917816,11.0666882 Z M11.4638136,27.3654147 L14.806363,27.3654147 C15.0623166,28.6258703 15.4173755,29.8981977 15.917816,31.0882414 C14.741658,30.549508 13.6580527,29.8003578 12.7157339,28.8592122 C12.2472364,28.3908909 11.8299296,27.8906387 11.4638136,27.3654147 Z M25.082184,31.0673634 C25.5838531,29.8752729 25.9380929,28.6021267 26.193637,27.3445367 L29.5361864,27.3445367 C29.1700704,27.8697607 28.7531731,28.3696036 28.2846756,28.8379248 C27.3419473,29.7794798 26.2587516,30.5286302 25.082184,31.0673634 Z" id="Shape"></path>
                    <path d="M20.5,0 C9.19625395,0 0,9.22262882 0,20.5586488 C0,25.1091181 1.46563499,29.4157978 4.2383914,33.0144628 L17.3560096,50.5574934 L7.88461538,50.5574934 C7.01361181,50.5574934 6.30769231,51.2618205 6.30769231,52.1308594 C6.30769231,52.9998982 7.01361181,53.7042254 7.88461538,53.7042254 L33.1153846,53.7042254 C33.9863882,53.7042254 34.6923077,52.9998982 34.6923077,52.1308594 C34.6923077,51.2618205 33.9863882,50.5574934 33.1153846,50.5574934 L23.6439904,50.5574934 L37.0531751,32.6264477 C37.0564603,32.6223505 37.0597456,32.6178434 37.0626202,32.6137462 C39.6386718,29.0962078 41,24.9276075 41,20.5586488 C41,9.22262882 31.803746,5.96236675e-15 20.5,0 Z M34.5202424,30.7515199 L20.5,49.4995686 C20.4913762,49.4880963 6.75407655,31.1161803 6.74504204,31.1047079 C4.39567308,28.0591793 3.15384615,24.412576 3.15384615,20.5586488 C3.15384615,10.9578385 10.9353866,3.14673195 20.5,3.14673195 C30.0646134,3.14673195 37.8461538,10.9578385 37.8461538,20.5586488 C37.8461538,24.2531907 36.6963141,27.7776944 34.5202424,30.7515199 Z" id="Shape"></path>
                </g>
            </g>
        </g>
    </g>
</svg>