<?xml version="1.0" encoding="UTF-8"?>
<svg width="15px" height="15px" viewBox="0 0 15 15" version="1.1" xmlns="http://www.w3.org/2000/svg" xmlns:xlink="http://www.w3.org/1999/xlink">
    <!-- Generator: Sketch 51.3 (57544) - http://www.bohemiancoding.com/sketch -->
    <title>magnifier</title>
    <desc>Created with Sketch.</desc>
    <defs></defs>
    <g id="Page-1" stroke="none" stroke-width="1" fill="none" fill-rule="evenodd" opacity="0.384095982">
        <g id="Literature-Copy" transform="translate(-1202.000000, -59.000000)" fill="#000000" fill-rule="nonzero">
            <g id="magnifier" transform="translate(1202.000000, 59.000000)">
                <path d="M14.4775672,12.504352 L11.0623694,9.08887805 C10.5535029,9.88028108 9.88006632,10.5533802 9.08866329,11.0622773 L12.5041373,14.4777513 C13.0493908,15.0228821 13.9334489,15.0228821 14.4775366,14.4777513 C15.0228208,13.9335103 15.0228208,13.0494522 14.4775672,12.504352 Z" id="Shape"></path>
                <path d="M11.1649035,5.58246711 C11.1649035,2.49963092 8.66539536,0 5.5824978,0 C2.4996616,0 3.06804821e-05,2.49963092 3.06804821e-05,5.58246711 C3.06804821e-05,8.66530331 2.4996616,11.1648115 5.5824978,11.1648115 C8.66539536,11.1648115 11.1649035,8.66530331 11.1649035,5.58246711 Z M5.5824978,9.76915638 C3.27373016,9.76915638 1.39568581,7.89126543 1.39568581,5.5824978 C1.39568581,3.27373016 3.27373016,1.39568581 5.5824978,1.39568581 C7.89120407,1.39568581 9.76940182,3.27373016 9.76940182,5.5824978 C9.76940182,7.89126543 7.89120407,9.76915638 5.5824978,9.76915638 Z" id="Shape"></path>
                <path d="M2.32610211,5.58246711 L3.25639569,5.58246711 C3.25639569,4.29993092 4.2999616,3.25645705 5.58246711,3.25645705 L5.58246711,2.32607143 C3.78713735,2.32607143 2.32610211,3.78710667 2.32610211,5.58246711 Z" id="Shape"></path>
            </g>
        </g>
    </g>
</svg>