<?xml version="1.0" encoding="UTF-8"?>
<svg width="60px" height="48px" viewBox="0 0 60 48" version="1.1" xmlns="http://www.w3.org/2000/svg" xmlns:xlink="http://www.w3.org/1999/xlink">
    <!-- Generator: Sketch 51.3 (57544) - http://www.bohemiancoding.com/sketch -->
    <title>mail copy</title>
    <desc>Created with Sketch.</desc>
    <defs></defs>
    <g id="Page-1" stroke="none" stroke-width="1" fill="none" fill-rule="evenodd">
        <g id="Contacts" transform="translate(-778.000000, -362.000000)" fill="#4A90E2" fill-rule="nonzero">
            <g id="Group" transform="translate(542.000000, 335.000000)">
                <g id="mail-copy" transform="translate(236.000000, 27.000000)">
                    <path d="M59.3422746,1.67737469 C59.3232586,0.767271714 58.581186,0.0236563992 57.6462376,0.00223173275 C57.6326549,0.00178539077 57.6190722,0 57.6054893,0 L19.2404653,0 C19.2273353,0 19.214658,0.00178539077 19.2015279,0.00178539077 C18.2711073,0.0223173275 17.5245069,0.761022789 17.50368,1.67514286 C17.50368,1.68808703 17.501869,1.70103109 17.501869,1.71397514 L17.501869,20.5677017 L1.73859626,20.5677017 C0.808175575,20.5677017 0.0217324532,21.3028364 0.00181103777,22.2450764 C0.00181103777,22.257574 0,22.2691791 0,22.2816769 L0,46.2773289 C0,47.2240323 0.77829351,47.991304 1.73859626,47.991304 L40.1036203,47.991304 C41.0639231,47.991304 41.8422166,47.2240323 41.8422166,46.2773289 L41.8422166,27.4236023 L57.6054893,27.4236023 C58.5657921,27.4236023 59.3440856,26.6563306 59.3440856,25.7096271 L59.3440856,1.71397514 C59.3440856,1.70147741 59.3422746,1.68987231 59.3422746,1.67737469 Z M38.3686462,16.5407528 L23.7377248,3.42795029 L53.0883084,3.42795029 L38.3686462,16.5407528 Z M19.2404653,27.4236023 L31.7814491,27.4236023 L20.9754394,37.1084545 L6.25577718,23.995652 L17.501869,23.995652 L17.501869,25.7096271 C17.501869,26.6563306 18.2801625,27.4236023 19.2404653,27.4236023 Z M38.3650241,44.5633537 L3.47719252,44.5633537 L3.47719252,26.1403526 L12.6356105,34.2991422 L8.33484854,38.1533545 C7.624469,38.7898463 7.57194891,39.8740249 8.21803666,40.5743444 C8.86367157,41.2751102 9.96342434,41.3264402 10.6738039,40.6895021 L15.228111,36.6080987 L19.8136586,40.6930728 C20.1446258,40.9881087 20.5616174,41.1354034 20.9790615,41.1354034 C21.397864,41.1354034 21.8171193,40.9867697 22.1485392,40.6895021 L26.7164292,36.5960474 L31.2843191,40.6895021 C31.9946987,41.3264402 33.0944514,41.2746639 33.7400864,40.5743444 C34.3861741,39.8740249 34.333654,38.7898463 33.6232745,38.1533545 L29.3012328,34.2795029 L36.9510563,27.4236023 L38.3650241,27.4236023 L38.3650241,44.5633537 Z M20.9790615,23.995652 L20.9790615,5.58827312 L30.0428528,13.7118011 L25.7208111,17.5856528 C25.0104316,18.2221446 24.9579115,19.3063232 25.6039992,20.0066427 C26.2500869,20.7074085 27.3493869,20.7587385 28.0597665,20.1218003 L32.6276564,16.0283457 L37.1955464,20.1218003 C37.857028,20.7149964 38.8671343,20.7163355 39.5304269,20.1253711 L44.1159746,16.040397 L48.6702817,20.1218003 C49.3806613,20.7587385 50.480414,20.7069622 51.1260489,20.0066427 C51.7721367,19.3063232 51.7196166,18.2221446 51.0092371,17.5856528 L46.7084751,13.7314404 L55.8668931,5.57265092 L55.8668931,23.995652 L20.9790615,23.995652 Z" id="Shape"></path>
                    <path d="M57.6428696,30.4460961 L50.7245911,30.4460961 C49.7849351,30.4460961 49.0233751,31.254619 49.0233751,32.2522204 C49.0233751,33.2498219 49.7849351,34.0583448 50.7245911,34.0583448 L57.6428696,34.0583448 C58.5825256,34.0583448 59.3440856,33.2498219 59.3440856,32.2522204 C59.3440856,31.254619 58.5825256,30.4460961 57.6428696,30.4460961 Z" id="Shape"></path>
                    <path d="M55.7318369,39.4767178 C55.7318369,38.4791163 54.9702769,37.6705935 54.0306209,37.6705935 L47.1123424,37.6705935 C46.1726864,37.6705935 45.4111264,38.4791163 45.4111264,39.4767178 C45.4111264,40.4743193 46.1726864,41.2828422 47.1123424,41.2828422 L54.0306209,41.2828422 C54.9702769,41.2828422 55.7318369,40.4743193 55.7318369,39.4767178 Z" id="Shape"></path>
                    <path d="M57.6428696,44.3790553 L50.7245911,44.3790553 C49.7849351,44.3790553 49.0233751,45.1875782 49.0233751,46.1851797 C49.0233751,47.1827811 49.7849351,47.991304 50.7245911,47.991304 L57.6428696,47.991304 C58.5825256,47.991304 59.3440856,47.1827811 59.3440856,46.1851797 C59.3440856,45.1875782 58.5825256,44.3790553 57.6428696,44.3790553 Z" id="Shape"></path>
                    <path d="M1.70121602,3.61224869 L8.61949451,3.61224869 C9.55915052,3.61224869 10.3207105,2.80372581 10.3207105,1.80612434 C10.3207105,0.808522881 9.55915052,0 8.61949451,0 L1.70121602,0 C0.761560014,0 0,0.808522881 0,1.80612434 C0,2.80372581 0.761560014,3.61224869 1.70121602,3.61224869 Z" id="Shape"></path>
                    <path d="M3.61224869,8.51458619 C3.61224869,9.51218766 4.3738087,10.3207105 5.31346471,10.3207105 L12.2317432,10.3207105 C13.1713992,10.3207105 13.9329592,9.51218766 13.9329592,8.51458619 C13.9329592,7.51698473 13.1713992,6.70846185 12.2317432,6.70846185 L5.31346471,6.70846185 C4.3738087,6.70846185 3.61224869,7.51698473 3.61224869,8.51458619 Z" id="Shape"></path>
                    <path d="M1.70121602,17.0291724 L8.61949451,17.0291724 C9.55915052,17.0291724 10.3207105,16.2206495 10.3207105,15.223048 C10.3207105,14.2254466 9.55915052,13.4169237 8.61949451,13.4169237 L1.70121602,13.4169237 C0.761560014,13.4169237 0,14.2254466 0,15.223048 C0,16.2206495 0.761560014,17.0291724 1.70121602,17.0291724 Z" id="Shape"></path>
                </g>
            </g>
        </g>
    </g>
</svg>