<?xml version="1.0" encoding="UTF-8"?>
<svg width="17px" height="14px" viewBox="0 0 17 14" version="1.1" xmlns="http://www.w3.org/2000/svg" xmlns:xlink="http://www.w3.org/1999/xlink">
    <!-- Generator: Sketch 51.3 (57544) - http://www.bohemiancoding.com/sketch -->
    <title>old-typical-phone</title>
    <desc>Created with Sketch.</desc>
    <defs></defs>
    <g id="Page-1" stroke="none" stroke-width="1" fill="none" fill-rule="evenodd">
        <g id="Literature-Copy" transform="translate(-1272.000000, -78.000000)" fill="#2E2C2D" fill-rule="nonzero">
            <g id="old-typical-phone" transform="translate(1272.000000, 78.000000)">
                <path d="M8.4785271,2.65344837 C11.3044637,2.68063234 13.0747925,2.50825399 13.3139027,5.579083 L16.75996,5.579083 C16.75996,0.821888512 12.5280685,0.180666667 8.38882,0.180666667 C4.24924527,0.180666667 0.01768,0.821888512 0.01768,5.579083 L3.4369883,5.579083 C3.70154268,2.44972851 5.67607741,2.62658421 8.4785271,2.65344837 Z" id="Shape"></path>
                <path d="M1.445,7.16772645 C2.14769987,7.16772645 2.73241826,7.20895999 2.86241637,6.53128407 C2.8798951,6.43917798 2.89,6.33475537 2.89,6.214 L2.85668116,6.214 L0,6.214 C0,7.22207976 0.646986392,7.16772645 1.445,7.16772645 Z" id="Shape"></path>
                <path d="M13.8926086,6.214 L13.86554,6.214 C13.86554,6.33569865 13.8762034,6.44050959 13.896163,6.53164955 C14.0334198,7.15729853 14.6179915,7.11843002 15.31904,7.11843002 C16.1218007,7.11843002 16.77254,7.17016535 16.77254,6.214 L13.8926086,6.214 Z" id="Shape"></path>
                <path d="M10.9239855,8.44309056 L10.9239855,8.14274462 C10.9239855,8.00843217 10.7660991,8 10.5711473,8 L10.2527123,8 C10.0579653,8 9.90007892,8.00843217 9.90007892,8.14274462 L9.90007892,8.401532 L9.90007892,8.60229799 L7.64748443,8.60229799 L7.64748443,8.401532 L7.64748443,8.14274462 C7.64748443,8.00843217 7.48959803,8 7.294851,8 L6.97621127,8 C6.78146424,8 6.62357784,8.00843217 6.62357784,8.14274462 L6.62357784,8.44309056 L6.62357784,8.70529095 C6.11039586,9.22808561 4.43118906,11.4535767 4.37016422,11.7230047 L4.37098335,13.5208642 C4.37098335,13.6868976 4.50880118,13.8220132 4.67815533,13.8220132 L12.869408,13.8220132 C13.0387622,13.8220132 13.17658,13.6868976 13.17658,13.5208642 L13.17658,11.7139702 C13.1161695,11.4523721 11.4373723,9.22788484 10.9239855,8.70509018 L10.9239855,8.44309056 Z M7.53649295,11.9649277 C7.37164399,11.9649277 7.23792179,11.8340283 7.23792179,11.6722109 C7.23792179,11.5103935 7.37164399,11.379494 7.53649295,11.379494 C7.70134192,11.379494 7.83506412,11.5103935 7.83506412,11.6722109 C7.83506412,11.8340283 7.70134192,11.9649277 7.53649295,11.9649277 Z M7.53649295,10.9610977 C7.37164399,10.9610977 7.23792179,10.8301983 7.23792179,10.6683809 C7.23792179,10.5065635 7.37164399,10.375664 7.53649295,10.375664 C7.70134192,10.375664 7.83506412,10.5065635 7.83506412,10.6683809 C7.83506412,10.8301983 7.70134192,10.9610977 7.53649295,10.9610977 Z M7.53649295,9.95746848 C7.37164399,9.95746848 7.23792179,9.82656905 7.23792179,9.66475165 C7.23792179,9.50313502 7.37164399,9.37203483 7.53649295,9.37203483 C7.70134192,9.37203483 7.83506412,9.50313502 7.83506412,9.66475165 C7.83506412,9.82656905 7.70134192,9.95746848 7.53649295,9.95746848 Z M8.76518086,11.9649277 C8.6003319,11.9649277 8.4666097,11.8340283 8.4666097,11.6722109 C8.4666097,11.5103935 8.6003319,11.379494 8.76518086,11.379494 C8.9302346,11.379494 9.06375202,11.5103935 9.06375202,11.6722109 C9.06375202,11.8340283 8.9302346,11.9649277 8.76518086,11.9649277 Z M8.76518086,10.9610977 C8.6003319,10.9610977 8.4666097,10.8301983 8.4666097,10.6683809 C8.4666097,10.5065635 8.6003319,10.375664 8.76518086,10.375664 C8.9302346,10.375664 9.06375202,10.5065635 9.06375202,10.6683809 C9.06375202,10.8301983 8.9302346,10.9610977 8.76518086,10.9610977 Z M8.76518086,9.95746848 C8.6003319,9.95746848 8.4666097,9.82656905 8.4666097,9.66475165 C8.4666097,9.50313502 8.6003319,9.37203483 8.76518086,9.37203483 C8.9302346,9.37203483 9.06375202,9.50313502 9.06375202,9.66475165 C9.06375202,9.82656905 8.9302346,9.95746848 8.76518086,9.95746848 Z M9.99386876,11.9649277 C9.82881502,11.9649277 9.6952976,11.8340283 9.6952976,11.6722109 C9.6952976,11.5103935 9.82881502,11.379494 9.99386876,11.379494 C10.1589225,11.379494 10.2924399,11.5103935 10.2924399,11.6722109 C10.2924399,11.8340283 10.1589225,11.9649277 9.99386876,11.9649277 Z M9.99386876,10.9610977 C9.82881502,10.9610977 9.6952976,10.8301983 9.6952976,10.6683809 C9.6952976,10.5065635 9.82881502,10.375664 9.99386876,10.375664 C10.1589225,10.375664 10.2924399,10.5065635 10.2924399,10.6683809 C10.2924399,10.8301983 10.1589225,10.9610977 9.99386876,10.9610977 Z M9.99386876,9.95746848 C9.82881502,9.95746848 9.6952976,9.82656905 9.6952976,9.66475165 C9.6952976,9.50313502 9.82881502,9.37203483 9.99386876,9.37203483 C10.1589225,9.37203483 10.2924399,9.50313502 10.2924399,9.66475165 C10.2924399,9.82656905 10.1589225,9.95746848 9.99386876,9.95746848 Z" id="Shape"></path>
            </g>
        </g>
    </g>
</svg>