<?xml version="1.0" encoding="UTF-8"?>
<svg width="48px" height="48px" viewBox="0 0 48 48" version="1.1" xmlns="http://www.w3.org/2000/svg" xmlns:xlink="http://www.w3.org/1999/xlink">
    <!-- Generator: Sketch 51.3 (57544) - http://www.bohemiancoding.com/sketch -->
    <title>phone-call copy</title>
    <desc>Created with Sketch.</desc>
    <defs></defs>
    <g id="Page-1" stroke="none" stroke-width="1" fill="none" fill-rule="evenodd">
        <g id="Contacts" transform="translate(-542.000000, -485.000000)" fill="#4A90E2" fill-rule="nonzero">
            <g id="Group" transform="translate(542.000000, 335.000000)">
                <g id="phone-call-copy" transform="translate(0.000000, 150.000000)">
                    <path d="M38.310953,29.170372 C36.6713861,27.5486001 34.0179242,27.5486001 32.377993,29.170372 L29.681193,31.8379021 C28.4393175,33.0666591 26.4290088,33.0666591 25.1867692,31.8379021 L15.8377412,22.5907045 C14.598415,21.3648295 14.598415,19.3702159 15.8377412,18.144701 L18.5345411,15.4771709 C20.1741082,13.855399 20.1744723,11.2303765 18.5345411,9.60860466 L12.6015811,3.7400384 C10.9692979,2.12511106 8.31547191,2.12186889 6.67881846,3.72959165 L4.71221213,5.60208607 C4.67433674,5.63270599 4.63791811,5.66512698 4.60259205,5.70042992 C-1.80745212,12.0960179 -1.19853252,21.4718189 4.42705418,27.0367082 L20.6919811,43.1189788 C23.6411623,46.0361509 27.5150126,47.4947368 31.3892271,47.4947368 C35.2634416,47.4947368 39.1372918,46.0361509 42.086473,43.1189788 C42.0923,43.1128548 42.098127,43.1070911 42.103954,43.1013274 L44.2533818,40.8981384 C45.8838442,39.2756461 45.8802023,36.657468 44.243913,35.0389383 L38.310953,29.170372 Z M36.3334211,31.1264407 L42.266381,36.9953671 C42.8130248,37.5357176 42.8130248,38.4107252 42.266381,38.9514358 C42.260554,38.9571996 42.2547271,38.9629633 42.2489001,38.968727 L41.2950961,39.9467614 L33.3671232,32.104475 L34.3558891,31.1264407 C34.9021687,30.5860902 35.7867773,30.5860902 36.3334211,31.1264407 Z M8.64615313,5.69610712 C9.19134018,5.15683738 10.0784981,5.15683738 10.6236851,5.69610712 L16.5566451,11.5646733 C17.1032888,12.105384 17.1032888,12.9800313 16.5566451,13.520742 L15.563873,14.5030991 L7.6002099,6.69251332 L8.62721544,5.71483926 C8.63340658,5.70835501 8.63996198,5.70223106 8.64615313,5.69610712 Z M22.6695131,41.1625499 L6.40458606,25.0802792 C1.86828078,20.5928488 1.61335042,13.4504964 5.63760964,8.66335159 L13.5961741,16.4688941 C11.5352435,18.787718 11.6222841,22.3334978 13.8602092,24.5467732 L23.2092372,33.794331 C25.4504401,36.0112088 29.0278427,36.1041491 31.3797582,34.0515378 L39.3048176,41.8902218 C34.4647809,45.9035849 27.2182007,45.6618681 22.6695131,41.1625499 Z" id="Shape"></path>
                    <path d="M30.1714796,0 C29.4143086,0 28.8,0.63010805 28.8,1.40757116 C28.8,2.18466774 29.4143086,2.81514232 30.1714796,2.81514232 C38.4896462,2.81514232 45.2570408,9.76062625 45.2570408,18.297692 C45.2570408,19.0751551 45.8713494,19.7052632 46.6285204,19.7052632 C47.3860486,19.7052632 48,19.0751551 48,18.297692 C48,8.20826585 40.0022025,0 30.1714796,0 Z" id="Shape"></path>
                    <path d="M30.2147737,8.3874421 C35.6752844,8.3874421 40.1178211,12.8299788 40.1178211,18.2904895 C40.1178211,19.0719309 40.7511534,19.7052632 41.5325947,19.7052632 C42.3140361,19.7052632 42.9473684,19.0719309 42.9473684,18.2904895 C42.9473684,11.2696751 37.2355881,5.55789474 30.2147737,5.55789474 C29.4337007,5.55789474 28.8,6.19159545 28.8,6.97266842 C28.8,7.7541098 29.4333323,8.3874421 30.2147737,8.3874421 Z" id="Shape"></path>
                    <path d="M30.2316411,13.9786988 C32.599814,13.9786988 34.5265643,15.9054491 34.5265643,18.2736221 C34.5265643,19.0643801 35.1674474,19.7052632 35.9582054,19.7052632 C36.7485906,19.7052632 37.3894737,19.0643801 37.3894737,18.2736221 C37.3894737,14.3265429 34.1787203,11.1157895 30.2316411,11.1157895 C29.4412559,11.1157895 28.8,11.7566726 28.8,12.5474306 C28.8,13.3378157 29.4408831,13.9786988 30.2316411,13.9786988 Z" id="Shape"></path>
                </g>
            </g>
        </g>
    </g>
</svg>