<?xml version="1.0" encoding="UTF-8"?>
<svg width="8px" height="14px" viewBox="0 0 8 14" version="1.1" xmlns="http://www.w3.org/2000/svg" xmlns:xlink="http://www.w3.org/1999/xlink">
    <!-- Generator: Sketch 51.3 (57544) - http://www.bohemiancoding.com/sketch -->
    <title>smartphone-call</title>
    <desc>Created with Sketch.</desc>
    <defs></defs>
    <g id="Page-1" stroke="none" stroke-width="1" fill="none" fill-rule="evenodd">
        <g id="Literature-Copy" transform="translate(-1276.000000, -52.000000)" fill="#2E2C2D" fill-rule="nonzero">
            <g id="smartphone-call" transform="translate(1276.000000, 52.000000)">
                <path d="M7.06984065,0 L0.930159355,0 C0.418650403,0 0,0.4252 0,0.9456 L0,13.054 C-3.49470163e-16,13.5744 0.418650403,14 0.930159355,14 L7.06984065,14 C7.5813496,14 8,13.5752 8,13.0544 L8,0.9456 C8,0.4252 7.5813496,0 7.06984065,0 Z M3.01790281,0.6816 L4.98209719,0.6816 C5.0442652,0.6816 5.09462916,0.7328 5.09462916,0.7964 C5.09462916,0.8596 5.0442652,0.9108 4.98209719,0.9108 L3.01790281,0.9108 C2.9557348,0.9108 2.90537084,0.8596 2.90537084,0.7964 C2.90537084,0.7328 2.9557348,0.6816 3.01790281,0.6816 Z M4,13.5272 C3.74306512,13.5272 3.53492032,13.3156 3.53492032,13.054 C3.53492032,12.7924 3.74306512,12.5812 4,12.5812 C4.25693488,12.5812 4.46507968,12.7924 4.46507968,13.054 C4.46507968,13.3156 4.25693488,13.5272 4,13.5272 Z M7.35274444,12.25 L0.647255558,12.25 L0.647255558,1.4996 L7.35274444,1.4996 L7.35274444,12.25 Z" id="Shape"></path>
            </g>
        </g>
    </g>
</svg>