<?xml version="1.0" encoding="UTF-8"?>
<svg width="46px" height="46px" viewBox="0 0 46 46" version="1.1" xmlns="http://www.w3.org/2000/svg" xmlns:xlink="http://www.w3.org/1999/xlink">
    <!-- Generator: Sketch 51.3 (57544) - http://www.bohemiancoding.com/sketch -->
    <title>support</title>
    <desc>Created with Sketch.</desc>
    <defs></defs>
    <g id="Page-1" stroke="none" stroke-width="1" fill="none" fill-rule="evenodd">
        <g id="Contacts" transform="translate(-542.000000, -359.000000)" fill="#4A90E2" fill-rule="nonzero">
            <g id="Group" transform="translate(542.000000, 335.000000)">
                <g id="support" transform="translate(0.000000, 24.000000)">
                    <path d="M41.9570312,18.9570312 L40.5195312,18.9570312 L40.5195312,17.609375 C40.5195312,7.89958189 32.6603089,0 23,0 C13.3396911,0 5.48046875,7.89958189 5.48046875,17.609375 L5.48046875,18.9570312 L4.04296875,18.9570312 C1.8137207,18.9570312 0,20.770752 0,23 L0,31.0859375 C0,33.3151855 1.8137207,35.1289062 4.04296875,35.1289062 L5.71209717,35.1289062 C6.26870732,36.6976624 7.766571,37.8242187 9.5234375,37.8242187 C11.7526855,37.8242187 13.5664062,36.010498 13.5664062,33.78125 L13.5664062,20.3046875 C13.5664062,18.0754395 11.7526855,16.2617187 9.5234375,16.2617187 C9.06649776,16.2617187 8.62780762,16.3389282 8.21824644,16.4793091 C8.79415889,8.7815247 15.2039489,2.6953125 23,2.6953125 C30.7960511,2.6953125 37.2058411,8.7815247 37.7817536,16.4793091 C37.3721924,16.3389282 36.9335022,16.2617187 36.4765625,16.2617187 C34.2473145,16.2617187 32.4335937,18.0754395 32.4335937,20.3046875 L32.4335937,33.78125 C32.4335937,36.010498 34.2473145,37.8242187 36.4765625,37.8242187 C36.948944,37.8242187 37.4023743,37.742096 37.8242187,37.5925903 L37.8242187,39.2617187 C37.8242187,40.0046844 37.2195282,40.609375 36.4765625,40.609375 L26.8113403,40.609375 C26.2547302,39.0406189 24.7568665,37.9140625 23,37.9140625 C20.770752,37.9140625 18.9570312,39.7277832 18.9570312,41.9570312 C18.9570312,44.1862793 20.770752,46 23,46 C24.7568665,46 26.2547302,44.8734436 26.8113403,43.3046875 L36.4765625,43.3046875 C38.7058105,43.3046875 40.5195312,41.4909668 40.5195312,39.2617187 L40.5195312,35.1289062 L41.9570312,35.1289062 C44.1862793,35.1289062 46,33.3151855 46,31.0859375 L46,23 C46,20.770752 44.1862793,18.9570312 41.9570312,18.9570312 Z M2.6953125,31.0859375 L2.6953125,23 C2.6953125,22.2570343 3.30000307,21.6523437 4.04296875,21.6523437 L5.48046875,21.6523437 L5.48046875,32.4335938 L4.04296875,32.4335938 C3.30000307,32.4335938 2.6953125,31.8289032 2.6953125,31.0859375 Z M9.5234375,18.9570312 C10.2664032,18.9570312 10.8710937,19.5617218 10.8710937,20.3046875 L10.8710937,33.78125 C10.8710937,34.5242157 10.2664032,35.1289063 9.5234375,35.1289063 C8.78047182,35.1289063 8.17578125,34.5242157 8.17578125,33.78125 L8.17578125,20.3046875 C8.17578125,19.5617218 8.78047182,18.9570312 9.5234375,18.9570312 Z M23,43.3046875 C22.2570343,43.3046875 21.6523437,42.6999969 21.6523437,41.9570312 C21.6523437,41.2140656 22.2570343,40.609375 23,40.609375 C23.7429657,40.609375 24.3476562,41.2140656 24.3476562,41.9570312 C24.3476562,42.6999969 23.7429657,43.3046875 23,43.3046875 Z M36.4765625,35.1289063 C35.7335968,35.1289063 35.1289062,34.5242157 35.1289062,33.78125 L35.1289062,20.3046875 C35.1289062,19.5617218 35.7335968,18.9570312 36.4765625,18.9570312 C37.2195282,18.9570312 37.8242187,19.5617218 37.8242187,20.3046875 L37.8242187,33.78125 C37.8242187,34.5242157 37.2195282,35.1289063 36.4765625,35.1289063 Z M43.3046875,31.0859375 C43.3046875,31.8289032 42.6999969,32.4335938 41.9570312,32.4335938 L40.5195312,32.4335938 L40.5195312,21.6523437 L41.9570312,21.6523437 C42.6999969,21.6523437 43.3046875,22.2570343 43.3046875,23 L43.3046875,31.0859375 Z" id="Shape"></path>
                </g>
            </g>
        </g>
    </g>
</svg>